inDegrees=no
num_controls=7
num_derivatives=13
num_iterations=34
num_multipliers=7
num_parameters=0
num_slacks=7
num_states=26
objective=0.426612
objective_accelerations=0.058774
objective_balance=0.001138
objective_effort=0.015556
objective_height=0.345178
objective_ligament=0.005966
solver_duration=498.475753
status=Solve_Succeeded
success=true
DataType=double
version=3
OpenSimVersion=4.5
endheader
time	/jointset/ground_pelvis/pelvis_tilt/value	/jointset/ground_pelvis/pelvis_tx/value	/jointset/ground_pelvis/pelvis_ty/value	/jointset/hip_l/hip_flexion_l/value	/jointset/hip_l/hip_adduction_l/value	/jointset/hip_l/hip_rotation_l/value	/jointset/back/lumbar_extension/value	/jointset/patellofemoral_l/patellar_flexion_l/value	/jointset/knee_l/knee_flexion_l/value	/jointset/knee_l/knee_adduction_l/value	/jointset/knee_l/knee_rotation_l/value	/jointset/ankle_l/ankle_angle_l/value	/jointset/subtalar_l/subtalar_angle_l/value	/jointset/ground_pelvis/pelvis_tilt/speed	/jointset/ground_pelvis/pelvis_tx/speed	/jointset/ground_pelvis/pelvis_ty/speed	/jointset/hip_l/hip_flexion_l/speed	/jointset/hip_l/hip_adduction_l/speed	/jointset/hip_l/hip_rotation_l/speed	/jointset/back/lumbar_extension/speed	/jointset/patellofemoral_l/patellar_flexion_l/speed	/jointset/knee_l/knee_flexion_l/speed	/jointset/knee_l/knee_adduction_l/speed	/jointset/knee_l/knee_rotation_l/speed	/jointset/ankle_l/ankle_angle_l/speed	/jointset/subtalar_l/subtalar_angle_l/speed	/forceset/tau_hip_flexion_l	/forceset/tau_hip_adduction_l	/forceset/tau_hip_rotation_l	/forceset/tau_knee_flexion_l	/forceset/tau_ankle_angle_l	/forceset/tau_subtalar_angle_l	/forceset/tau_lumbar_extension	lambda_cid13_p0	lambda_cid13_p1	lambda_cid13_p2	lambda_cid13_p3	lambda_cid13_p4	lambda_cid13_p5	lambda_cid14_p0	/jointset/ground_pelvis/pelvis_tilt/accel	/jointset/ground_pelvis/pelvis_tx/accel	/jointset/ground_pelvis/pelvis_ty/accel	/jointset/hip_l/hip_flexion_l/accel	/jointset/hip_l/hip_adduction_l/accel	/jointset/hip_l/hip_rotation_l/accel	/jointset/back/lumbar_extension/accel	/jointset/patellofemoral_l/patellar_flexion_l/accel	/jointset/knee_l/knee_flexion_l/accel	/jointset/knee_l/knee_adduction_l/accel	/jointset/knee_l/knee_rotation_l/accel	/jointset/ankle_l/ankle_angle_l/accel	/jointset/subtalar_l/subtalar_angle_l/accel	gamma_cid13_p0	gamma_cid13_p1	gamma_cid13_p2	gamma_cid13_p3	gamma_cid13_p4	gamma_cid13_p5	gamma_cid14_p0
0	0.04891824534497352	0.1075744435304069	0.9032721185576268	0.1266922784136757	-0.366711866043489	-0.2293807105146601	-0.2144969558742783	0.2051545070140993	0.2051545070141877	-0.1674378681312481	-0.1627695262352562	0.09024313228550125	0.08268734435737174	0	0	0	0	0	0	0	0	0	0	0	0	0	0.1188477680013282	-0.03320995092221622	-0.01059031062592886	-0.2505533791661019	0.1915650010477563	-0.1086947389122422	-0.05173169040342955	29.27424379747155	43.39761196132144	-8.704329761383951	-17.20151117258154	-439.0714045376325	-28.34945395944512	-26.28310271369256	-3.935441230892267	-1.244546356510905	-0.9186406080646518	12.33439185365417	-0.3453584643783377	3.248019482405036	-3.614884072158235	10.72318208731262	10.72318208731262	1.973618072035683	-0.9910414861897028	3.22577161436167	0.5639326063507701	-1.087547855119816e-08	1.773032856576086e-07	2.031653791726128e-07	1.000947284746438e-08	-6.58668135945725e-08	-2.283286253285148e-07	6.611791343410835e-09
0.01	0.0487341560202946	0.1075155171921012	0.9032277013709487	0.1272863938440084	-0.366727270824121	-0.2292105170227623	-0.2146809105506186	0.2056814119512139	0.2056814119514551	-0.1673382489038509	-0.1628070580345126	0.09040675841564923	0.08271817212754189	-0.03622654294600482	-0.01148381990866901	-0.008839202773825224	0.1177572899362446	-0.002986347512264924	0.03400070838603827	-0.03640644036875397	0.1053127050496334	0.1053127050496415	0.02009088957846021	-0.007429045538727297	0.03318349250931957	0.006408603647174524	0.1157763928777215	-0.04100060098424269	-0.01034452772387842	-0.2503831813362798	0.1931530181367738	-0.1014259228850696	-0.04862559274552189	30.31594056404306	40.05000896883493	-8.161076840483807	-20.19020136933289	-439.0316419772107	-35.09017192587315	-26.28341795560621	-3.377564626349198	-1.055080641287946	-0.8599381012650928	11.33652500791942	-0.2611583799664838	3.470376037180948	-3.595849788337921	10.42507103031161	10.42507103031212	2.051942531197902	-0.6072124644423219	3.433386828176011	0.715729463094501	-2.228077867931527e-08	7.01530337508908e-07	1.332517974282202e-09	7.166328396309104e-08	-1.572113803150478e-07	1.333022067841534e-07	7.8415421083351e-08
0.02	0.04820554050624634	0.1073507964880635	0.9030962165586931	0.1290261076628282	-0.3667697161769584	-0.2287014605428669	-0.2152173947843749	0.207259395202401	0.2072593952024239	-0.167032697153885	-0.1629165555640592	0.09091596922280844	0.08282036697802481	-0.06890523788788801	-0.02115887314641162	-0.01741352511554058	0.2291196776449956	-0.005408114436964429	0.06777259759124542	-0.07050591150182371	0.2102156627601558	0.2102156627601494	0.04118650437471484	-0.01439314614652929	0.06911693537698031	0.01427341606206244	0.1127050177565359	-0.04879125104731395	-0.01009874482298586	-0.2502129835058253	0.1947410352254945	-0.09415710685909977	-0.0455194950851258	31.40645712095389	36.70986324707636	-7.637297374139688	-23.23438230569493	-438.1116195320411	-41.640074132207	-26.28395310652972	-3.225871630069024	-0.8827930223249094	-0.8656645216427146	11.05541140815552	-0.2324423468651868	3.202255646238853	-3.153490225022333	10.64123261949005	10.64123261948554	2.174563115594784	-0.8980525000044042	3.7757616860306	0.8551743598937372	-3.368607880743238e-08	1.225757389360207e-06	-2.005003432240484e-07	1.333170950787177e-07	-2.485559470355231e-07	4.949330388968216e-07	1.502190508232912e-07
0.03	0.04736151104509796	0.1070946795833529	0.9028799392949585	0.1318547519510718	-0.3668338654613299	-0.2278570240965505	-0.2160859871917277	0.2098767216449337	0.2098767216448973	-0.1665141326598015	-0.1630921390520951	0.09178866134539912	0.08300528483155584	-0.09989769265459141	-0.03012976109805025	-0.02582763707902725	0.3361817207554241	-0.007375181856102535	0.101065074611448	-0.10314153643305	0.3123516325395507	0.3123516325395396	0.06233879907632183	-0.02040641471292424	0.1048983134602592	0.02260626190170649	0.1099554611828183	-0.04414489660932431	-0.00926006394408584	-0.2459869027528878	0.1874323479579081	-0.09538769061407931	-0.04366893776269532	28.91144037150726	37.51434788500342	-7.575007768079594	-20.72135807670661	-438.6285582101193	-39.39082934881871	-26.28406252817599	-3.03548673146478	-0.9139977626538831	-0.8271910312177877	10.46747775203824	-0.1719990385910667	3.385370045910753	-3.307943599397241	9.865049842957578	9.865049842959145	2.057606293178746	-0.4054551505834964	3.400879351773362	0.8065867036428314	-4.435813720830903e-08	1.378992080248662e-06	-1.582270096533855e-07	1.631936099759737e-07	-4.464347126959484e-07	4.505523349339274e-07	1.739937627411528e-07
0.04	0.04620764617005549	0.1067469015829135	0.9025799396120907	0.1357411920683523	-0.3669163174397881	-0.226681137616832	-0.217278804842819	0.2134884619223015	0.2134884619223306	-0.1657896364896305	-0.1633183534491356	0.09300347794528709	0.08327038054501308	-0.1308723206813264	-0.03949109229218679	-0.03415800894222444	0.4406788434478525	-0.009068653241374652	0.1340626042716971	-0.1353509602534019	0.4090984297506767	0.4090984297506761	0.08237283960734898	-0.02451932790431248	0.1375418308354343	0.03030898804707765	0.1072059046089773	-0.0394985421712763	-0.008421383064022561	-0.2417608220000075	0.1801236606903975	-0.09661827436898521	-0.04181838044044934	26.4615494040824	38.33055354125322	-7.537002082022282	-18.25950237840973	-438.3203076275458	-36.94681310405391	-26.28246248887418	-3.222306282076422	-0.960881670823863	-0.8489165015848489	10.54242732455549	-0.1777231400919049	3.143266174248259	-3.068250002848364	9.563398105835878	9.563398105834398	1.950912281479005	-0.5179814250027759	3.14818954441043	0.7291504210394042	-5.501507722305701e-08	1.524577444106955e-06	-1.10920558664805e-07	1.924149228893459e-07	-6.465100597778161e-07	3.978002590931867e-07	1.967781876936108e-07
0.05	0.04474631338908121	0.1063048018107307	0.9021966639105174	0.1406593395384658	-0.3670146471265543	-0.2251797448725	-0.2187896418456806	0.2180474935218009	0.2180474935218523	-0.1648692999175468	-0.1635812863452841	0.0945339325528036	0.08361055915025586	-0.1610895078664823	-0.04886625813467498	-0.04250925597449631	0.5423258185135911	-0.010575301566855	0.1660275990992547	-0.1666378993927816	0.5023605398147601	0.5023605398147413	0.1015936848417517	-0.02805849852391635	0.1684800219749801	0.03773796606930392	0.1026964426946718	-0.03749781584343465	-0.007356130812562445	-0.2372046224640486	0.1737732070709876	-0.09527631505234746	-0.03847591158648508	24.56544569416864	37.94563319686092	-7.32245835201632	-17.34873776606058	-437.2564803344587	-36.72127042922817	-26.27786139998275	-2.875704630969526	-0.9164047187573797	-0.830178413227003	9.882107047854221	-0.1340472085492433	3.194929688746559	-3.1321347328736	9.155475367443934	9.155475367441968	1.892800513797019	-0.2706250869081687	3.056315206384429	0.751230029996472	-5.617723174031418e-08	1.602833422451536e-06	-1.313214302510563e-07	2.042864913589659e-07	-7.16463474546171e-07	4.346321954932333e-07	2.104601862734291e-07
